<mxfile host="app.diagrams.net" modified="2024-01-02T02:28:44.938Z" agent="Mozilla/5.0 (Windows NT 10.0; Win64; x64) AppleWebKit/537.36 (KHTML, like Gecko) Chrome/120.0.0.0 Safari/537.36 Edg/120.0.0.0" etag="kn6dJkhVWAHCqu3T7ge_" version="22.1.16" type="device">
  <diagram name="Page-1" id="QdHJAeCcax6DH5IfFbmG">
    <mxGraphModel dx="705" dy="463" grid="1" gridSize="10" guides="1" tooltips="1" connect="1" arrows="1" fold="1" page="1" pageScale="1" pageWidth="850" pageHeight="1100" math="0" shadow="0">
      <root>
        <mxCell id="0" />
        <mxCell id="1" parent="0" />
        <mxCell id="XOS-CpgFwpekMtQFtGS_-9" value="" style="edgeStyle=orthogonalEdgeStyle;rounded=0;orthogonalLoop=1;jettySize=auto;html=1;exitX=1;exitY=0.5;exitDx=0;exitDy=0;entryX=1;entryY=0.75;entryDx=0;entryDy=0;movable=1;resizable=1;rotatable=1;deletable=1;editable=1;locked=0;connectable=1;" parent="1" source="XOS-CpgFwpekMtQFtGS_-1" target="XOS-CpgFwpekMtQFtGS_-4" edge="1">
          <mxGeometry x="-0.5882" y="-120" relative="1" as="geometry">
            <Array as="points">
              <mxPoint x="500" y="337" />
              <mxPoint x="500" y="263" />
              <mxPoint x="447" y="263" />
            </Array>
            <mxPoint as="offset" />
          </mxGeometry>
        </mxCell>
        <mxCell id="XOS-CpgFwpekMtQFtGS_-10" value="Y" style="edgeLabel;html=1;align=center;verticalAlign=middle;resizable=0;points=[];" parent="XOS-CpgFwpekMtQFtGS_-9" vertex="1" connectable="0">
          <mxGeometry x="-0.7613" y="18" relative="1" as="geometry">
            <mxPoint x="-11" y="8" as="offset" />
          </mxGeometry>
        </mxCell>
        <mxCell id="XOS-CpgFwpekMtQFtGS_-21" value="Y" style="edgeLabel;html=1;align=center;verticalAlign=middle;resizable=0;points=[];" parent="XOS-CpgFwpekMtQFtGS_-9" vertex="1" connectable="0">
          <mxGeometry x="-0.8625" y="8" relative="1" as="geometry">
            <mxPoint x="29" y="208" as="offset" />
          </mxGeometry>
        </mxCell>
        <mxCell id="XOS-CpgFwpekMtQFtGS_-23" value="N" style="edgeLabel;html=1;align=center;verticalAlign=middle;resizable=0;points=[];" parent="XOS-CpgFwpekMtQFtGS_-9" vertex="1" connectable="0">
          <mxGeometry x="-0.8625" y="8" relative="1" as="geometry">
            <mxPoint x="-38" y="58" as="offset" />
          </mxGeometry>
        </mxCell>
        <mxCell id="XOS-CpgFwpekMtQFtGS_-38" value="N" style="edgeLabel;html=1;align=center;verticalAlign=middle;resizable=0;points=[];" parent="XOS-CpgFwpekMtQFtGS_-9" vertex="1" connectable="0">
          <mxGeometry x="-0.8625" y="8" relative="1" as="geometry">
            <mxPoint x="-37" y="262" as="offset" />
          </mxGeometry>
        </mxCell>
        <mxCell id="XOS-CpgFwpekMtQFtGS_-43" value="Y" style="edgeLabel;html=1;align=center;verticalAlign=middle;resizable=0;points=[];" parent="XOS-CpgFwpekMtQFtGS_-9" vertex="1" connectable="0">
          <mxGeometry x="-0.8625" y="8" relative="1" as="geometry">
            <mxPoint x="29" y="414" as="offset" />
          </mxGeometry>
        </mxCell>
        <mxCell id="XOS-CpgFwpekMtQFtGS_-44" value="N" style="edgeLabel;html=1;align=center;verticalAlign=middle;resizable=0;points=[];" parent="XOS-CpgFwpekMtQFtGS_-9" vertex="1" connectable="0">
          <mxGeometry x="-0.8625" y="8" relative="1" as="geometry">
            <mxPoint x="-37" y="468" as="offset" />
          </mxGeometry>
        </mxCell>
        <mxCell id="XOS-CpgFwpekMtQFtGS_-25" style="edgeStyle=orthogonalEdgeStyle;rounded=0;orthogonalLoop=1;jettySize=auto;html=1;exitX=0.5;exitY=1;exitDx=0;exitDy=0;entryX=0.5;entryY=0;entryDx=0;entryDy=0;" parent="1" source="XOS-CpgFwpekMtQFtGS_-1" target="XOS-CpgFwpekMtQFtGS_-24" edge="1">
          <mxGeometry relative="1" as="geometry" />
        </mxCell>
        <mxCell id="XOS-CpgFwpekMtQFtGS_-1" value="More Years?" style="rhombus;whiteSpace=wrap;html=1;" parent="1" vertex="1">
          <mxGeometry x="370" y="297" width="80" height="80" as="geometry" />
        </mxCell>
        <mxCell id="XOS-CpgFwpekMtQFtGS_-3" value="" style="edgeStyle=orthogonalEdgeStyle;rounded=0;orthogonalLoop=1;jettySize=auto;html=1;exitX=0.5;exitY=1;exitDx=0;exitDy=0;" parent="1" source="XOS-CpgFwpekMtQFtGS_-4" target="XOS-CpgFwpekMtQFtGS_-1" edge="1">
          <mxGeometry relative="1" as="geometry">
            <mxPoint x="389.5" y="424" as="sourcePoint" />
          </mxGeometry>
        </mxCell>
        <mxCell id="XOS-CpgFwpekMtQFtGS_-4" value="Find Best Mix" style="whiteSpace=wrap;html=1;movable=1;resizable=1;rotatable=1;deletable=1;editable=1;locked=0;connectable=1;" parent="1" vertex="1">
          <mxGeometry x="372" y="231" width="75" height="42" as="geometry" />
        </mxCell>
        <mxCell id="wwhvIDw3mNuY89BhDXE_-10" style="edgeStyle=orthogonalEdgeStyle;rounded=0;orthogonalLoop=1;jettySize=auto;html=1;exitX=0;exitY=0.5;exitDx=0;exitDy=0;entryX=1;entryY=0.5;entryDx=0;entryDy=0;" parent="1" source="XOS-CpgFwpekMtQFtGS_-12" target="wwhvIDw3mNuY89BhDXE_-9" edge="1">
          <mxGeometry relative="1" as="geometry" />
        </mxCell>
        <mxCell id="XOS-CpgFwpekMtQFtGS_-12" value="Macro\ Overlord.xlsm" style="ellipse;whiteSpace=wrap;html=1;aspect=fixed;" parent="1" vertex="1">
          <mxGeometry x="720" y="201" width="80" height="80" as="geometry" />
        </mxCell>
        <mxCell id="XOS-CpgFwpekMtQFtGS_-15" value="" style="edgeStyle=orthogonalEdgeStyle;rounded=0;orthogonalLoop=1;jettySize=auto;html=1;" parent="1" source="XOS-CpgFwpekMtQFtGS_-14" target="XOS-CpgFwpekMtQFtGS_-12" edge="1">
          <mxGeometry relative="1" as="geometry" />
        </mxCell>
        <mxCell id="XOS-CpgFwpekMtQFtGS_-14" value="User" style="shape=umlActor;verticalLabelPosition=top;verticalAlign=bottom;html=1;outlineConnect=0;horizontal=1;labelPosition=center;align=center;" parent="1" vertex="1">
          <mxGeometry x="752.5" y="152" width="15" height="30" as="geometry" />
        </mxCell>
        <mxCell id="XOS-CpgFwpekMtQFtGS_-17" style="edgeStyle=orthogonalEdgeStyle;rounded=0;orthogonalLoop=1;jettySize=auto;html=1;entryX=0.5;entryY=0;entryDx=0;entryDy=0;" parent="1" source="XOS-CpgFwpekMtQFtGS_-16" target="XOS-CpgFwpekMtQFtGS_-4" edge="1">
          <mxGeometry relative="1" as="geometry" />
        </mxCell>
        <mxCell id="XOS-CpgFwpekMtQFtGS_-16" value="EIA Hourly&amp;nbsp;&lt;br&gt;per region&lt;br&gt;per source&lt;br&gt;(4 Years)" style="whiteSpace=wrap;html=1;aspect=fixed;" parent="1" vertex="1">
          <mxGeometry x="370" y="112" width="80" height="80" as="geometry" />
        </mxCell>
        <mxCell id="XOS-CpgFwpekMtQFtGS_-20" style="edgeStyle=orthogonalEdgeStyle;rounded=0;orthogonalLoop=1;jettySize=auto;html=1;entryX=1;entryY=0.5;entryDx=0;entryDy=0;exitX=1;exitY=0.5;exitDx=0;exitDy=0;" parent="1" source="XOS-CpgFwpekMtQFtGS_-18" target="XOS-CpgFwpekMtQFtGS_-16" edge="1">
          <mxGeometry relative="1" as="geometry">
            <mxPoint x="466.0014285714286" y="566.0285714285714" as="sourcePoint" />
            <mxPoint x="467.03" y="154" as="targetPoint" />
            <Array as="points">
              <mxPoint x="530" y="543" />
              <mxPoint x="530" y="152" />
            </Array>
          </mxGeometry>
        </mxCell>
        <mxCell id="XOS-CpgFwpekMtQFtGS_-18" value="More Regions?" style="rhombus;whiteSpace=wrap;html=1;" parent="1" vertex="1">
          <mxGeometry x="370" y="503" width="80" height="80" as="geometry" />
        </mxCell>
        <mxCell id="XOS-CpgFwpekMtQFtGS_-26" style="edgeStyle=orthogonalEdgeStyle;rounded=0;orthogonalLoop=1;jettySize=auto;html=1;entryX=0.5;entryY=0;entryDx=0;entryDy=0;" parent="1" source="XOS-CpgFwpekMtQFtGS_-24" target="XOS-CpgFwpekMtQFtGS_-18" edge="1">
          <mxGeometry relative="1" as="geometry" />
        </mxCell>
        <mxCell id="XOS-CpgFwpekMtQFtGS_-24" value="Make python\ mailbox\ outbox\&amp;nbsp;&lt;br&gt;results_title.csv" style="whiteSpace=wrap;html=1;" parent="1" vertex="1">
          <mxGeometry x="365" y="403" width="91" height="80" as="geometry" />
        </mxCell>
        <mxCell id="XOS-CpgFwpekMtQFtGS_-27" value="python\mailbox\&lt;br&gt;&amp;nbsp;inbox.txt" style="text;html=1;align=center;verticalAlign=middle;resizable=0;points=[];autosize=1;strokeColor=none;fillColor=none;" parent="1" vertex="1">
          <mxGeometry x="620" y="202" width="110" height="40" as="geometry" />
        </mxCell>
        <mxCell id="XOS-CpgFwpekMtQFtGS_-28" value="csv\EIA_Hourly\Latest Date\ &lt;br&gt;region_master_date.csv" style="text;html=1;align=center;verticalAlign=middle;resizable=0;points=[];autosize=1;strokeColor=none;fillColor=none;" parent="1" vertex="1">
          <mxGeometry x="324.5" y="72" width="170" height="40" as="geometry" />
        </mxCell>
        <mxCell id="WnvdPqoK6Z-XB0HQEn03-2" style="edgeStyle=orthogonalEdgeStyle;rounded=0;orthogonalLoop=1;jettySize=auto;html=1;exitX=1;exitY=0.5;exitDx=0;exitDy=0;entryX=0;entryY=0;entryDx=0;entryDy=0;" edge="1" parent="1" source="XOS-CpgFwpekMtQFtGS_-29" target="wwhvIDw3mNuY89BhDXE_-15">
          <mxGeometry relative="1" as="geometry" />
        </mxCell>
        <mxCell id="XOS-CpgFwpekMtQFtGS_-29" value="Calc\Prices.xlsx" style="rounded=0;whiteSpace=wrap;html=1;" parent="1" vertex="1">
          <mxGeometry x="80" y="231" width="110" height="20" as="geometry" />
        </mxCell>
        <mxCell id="XOS-CpgFwpekMtQFtGS_-34" style="edgeStyle=orthogonalEdgeStyle;rounded=0;orthogonalLoop=1;jettySize=auto;html=1;exitX=1;exitY=0.5;exitDx=0;exitDy=0;entryX=0;entryY=0.5;entryDx=0;entryDy=0;" parent="1" source="XOS-CpgFwpekMtQFtGS_-30" edge="1">
          <mxGeometry relative="1" as="geometry">
            <mxPoint x="215" y="291" as="targetPoint" />
          </mxGeometry>
        </mxCell>
        <mxCell id="XOS-CpgFwpekMtQFtGS_-30" value="Calc\Lifetime.xlsx" style="rounded=0;whiteSpace=wrap;html=1;" parent="1" vertex="1">
          <mxGeometry x="80" y="281" width="110" height="20" as="geometry" />
        </mxCell>
        <mxCell id="XOS-CpgFwpekMtQFtGS_-31" value="Calc\CO2_gen.xlsx" style="rounded=0;whiteSpace=wrap;html=1;" parent="1" vertex="1">
          <mxGeometry x="80" y="331" width="110" height="20" as="geometry" />
        </mxCell>
        <mxCell id="XOS-CpgFwpekMtQFtGS_-36" style="edgeStyle=orthogonalEdgeStyle;rounded=0;orthogonalLoop=1;jettySize=auto;html=1;exitX=1;exitY=0.5;exitDx=0;exitDy=0;entryX=0;entryY=0.5;entryDx=0;entryDy=0;" parent="1" target="XOS-CpgFwpekMtQFtGS_-4" edge="1" source="wwhvIDw3mNuY89BhDXE_-15">
          <mxGeometry relative="1" as="geometry">
            <mxPoint x="255" y="232" as="sourcePoint" />
            <Array as="points">
              <mxPoint x="330" y="291" />
              <mxPoint x="330" y="252" />
            </Array>
          </mxGeometry>
        </mxCell>
        <mxCell id="XOS-CpgFwpekMtQFtGS_-37" value="csv\specs.csv" style="edgeLabel;html=1;align=center;verticalAlign=middle;resizable=0;points=[];" parent="XOS-CpgFwpekMtQFtGS_-36" vertex="1" connectable="0">
          <mxGeometry x="0.4758" relative="1" as="geometry">
            <mxPoint x="-14" y="-10" as="offset" />
          </mxGeometry>
        </mxCell>
        <mxCell id="XOS-CpgFwpekMtQFtGS_-35" style="edgeStyle=orthogonalEdgeStyle;rounded=0;orthogonalLoop=1;jettySize=auto;html=1;exitX=1;exitY=0.5;exitDx=0;exitDy=0;entryX=0;entryY=1;entryDx=0;entryDy=0;" parent="1" source="XOS-CpgFwpekMtQFtGS_-31" target="wwhvIDw3mNuY89BhDXE_-15" edge="1">
          <mxGeometry relative="1" as="geometry">
            <mxPoint x="216.27999999999997" y="321.32" as="targetPoint" />
          </mxGeometry>
        </mxCell>
        <mxCell id="XOS-CpgFwpekMtQFtGS_-39" style="edgeStyle=orthogonalEdgeStyle;rounded=0;orthogonalLoop=1;jettySize=auto;html=1;exitX=0.5;exitY=1;exitDx=0;exitDy=0;entryX=0.5;entryY=0;entryDx=0;entryDy=0;" parent="1" edge="1">
          <mxGeometry relative="1" as="geometry">
            <mxPoint x="411" y="581" as="sourcePoint" />
            <mxPoint x="410" y="607" as="targetPoint" />
          </mxGeometry>
        </mxCell>
        <mxCell id="XOS-CpgFwpekMtQFtGS_-46" value="" style="edgeStyle=orthogonalEdgeStyle;rounded=0;orthogonalLoop=1;jettySize=auto;html=1;" parent="1" source="XOS-CpgFwpekMtQFtGS_-40" target="XOS-CpgFwpekMtQFtGS_-41" edge="1">
          <mxGeometry relative="1" as="geometry" />
        </mxCell>
        <mxCell id="XOS-CpgFwpekMtQFtGS_-40" value="Results\&lt;br&gt;DirName\&lt;br&gt;Results_title.&lt;br&gt;xlsm" style="whiteSpace=wrap;html=1;aspect=fixed;" parent="1" vertex="1">
          <mxGeometry x="370" y="607" width="80" height="80" as="geometry" />
        </mxCell>
        <mxCell id="XOS-CpgFwpekMtQFtGS_-49" style="edgeStyle=orthogonalEdgeStyle;rounded=0;orthogonalLoop=1;jettySize=auto;html=1;exitX=0.5;exitY=1;exitDx=0;exitDy=0;entryX=0.5;entryY=0;entryDx=0;entryDy=0;" parent="1" source="XOS-CpgFwpekMtQFtGS_-41" target="XOS-CpgFwpekMtQFtGS_-47" edge="1">
          <mxGeometry relative="1" as="geometry" />
        </mxCell>
        <mxCell id="XOS-CpgFwpekMtQFtGS_-41" value="More &lt;br&gt;Cases?" style="rhombus;whiteSpace=wrap;html=1;" parent="1" vertex="1">
          <mxGeometry x="370" y="709" width="80" height="80" as="geometry" />
        </mxCell>
        <mxCell id="XOS-CpgFwpekMtQFtGS_-42" style="edgeStyle=orthogonalEdgeStyle;rounded=0;orthogonalLoop=1;jettySize=auto;html=1;entryX=0.5;entryY=1;entryDx=0;entryDy=0;exitX=1;exitY=0.5;exitDx=0;exitDy=0;" parent="1" source="XOS-CpgFwpekMtQFtGS_-41" target="XOS-CpgFwpekMtQFtGS_-12" edge="1">
          <mxGeometry relative="1" as="geometry">
            <mxPoint x="466.0014285714286" y="772.0285714285714" as="sourcePoint" />
            <mxPoint x="450" y="358" as="targetPoint" />
            <Array as="points">
              <mxPoint x="450" y="769" />
              <mxPoint x="760" y="769" />
            </Array>
          </mxGeometry>
        </mxCell>
        <mxCell id="XOS-CpgFwpekMtQFtGS_-52" style="edgeStyle=orthogonalEdgeStyle;rounded=0;orthogonalLoop=1;jettySize=auto;html=1;exitX=0.5;exitY=1;exitDx=0;exitDy=0;" parent="1" source="XOS-CpgFwpekMtQFtGS_-47" target="XOS-CpgFwpekMtQFtGS_-50" edge="1">
          <mxGeometry relative="1" as="geometry" />
        </mxCell>
        <mxCell id="XOS-CpgFwpekMtQFtGS_-47" value="Results\&amp;nbsp;&lt;br&gt;Dir_Name\&lt;br&gt;compare.&lt;br&gt;xlsm" style="whiteSpace=wrap;html=1;aspect=fixed;" parent="1" vertex="1">
          <mxGeometry x="370" y="817" width="80" height="80" as="geometry" />
        </mxCell>
        <mxCell id="XOS-CpgFwpekMtQFtGS_-50" value="Done" style="verticalLabelPosition=bottom;verticalAlign=top;html=1;shape=mxgraph.basic.8_point_star" parent="1" vertex="1">
          <mxGeometry x="360" y="917" width="100" height="100" as="geometry" />
        </mxCell>
        <mxCell id="XOS-CpgFwpekMtQFtGS_-53" value="&lt;font style=&quot;font-size: 24px;&quot;&gt;&lt;b&gt;Optimize Flow&lt;/b&gt;&lt;/font&gt;" style="text;html=1;align=center;verticalAlign=middle;resizable=0;points=[];autosize=1;strokeColor=none;fillColor=none;" parent="1" vertex="1">
          <mxGeometry x="310" y="13" width="190" height="40" as="geometry" />
        </mxCell>
        <mxCell id="wwhvIDw3mNuY89BhDXE_-3" value="" style="edgeStyle=orthogonalEdgeStyle;rounded=0;orthogonalLoop=1;jettySize=auto;html=1;" parent="1" source="wwhvIDw3mNuY89BhDXE_-1" target="wwhvIDw3mNuY89BhDXE_-2" edge="1">
          <mxGeometry relative="1" as="geometry" />
        </mxCell>
        <mxCell id="wwhvIDw3mNuY89BhDXE_-1" value="Results\ Templates\&amp;nbsp;&lt;br&gt;Results_ Templates. xlsm" style="whiteSpace=wrap;html=1;" parent="1" vertex="1">
          <mxGeometry x="110" y="607" width="80" height="80" as="geometry" />
        </mxCell>
        <mxCell id="wwhvIDw3mNuY89BhDXE_-4" value="" style="edgeStyle=orthogonalEdgeStyle;rounded=0;orthogonalLoop=1;jettySize=auto;html=1;" parent="1" source="wwhvIDw3mNuY89BhDXE_-2" target="XOS-CpgFwpekMtQFtGS_-40" edge="1">
          <mxGeometry relative="1" as="geometry" />
        </mxCell>
        <mxCell id="wwhvIDw3mNuY89BhDXE_-2" value="Overlord" style="ellipse;whiteSpace=wrap;html=1;" parent="1" vertex="1">
          <mxGeometry x="250" y="621" width="60" height="52" as="geometry" />
        </mxCell>
        <mxCell id="wwhvIDw3mNuY89BhDXE_-5" value="" style="edgeStyle=orthogonalEdgeStyle;rounded=0;orthogonalLoop=1;jettySize=auto;html=1;" parent="1" source="wwhvIDw3mNuY89BhDXE_-6" target="wwhvIDw3mNuY89BhDXE_-8" edge="1">
          <mxGeometry relative="1" as="geometry" />
        </mxCell>
        <mxCell id="wwhvIDw3mNuY89BhDXE_-6" value="Results\ Templates\&amp;nbsp;&lt;br&gt;Results_ Templates\ compare xlsm" style="whiteSpace=wrap;html=1;" parent="1" vertex="1">
          <mxGeometry x="110" y="817" width="80" height="80" as="geometry" />
        </mxCell>
        <mxCell id="wwhvIDw3mNuY89BhDXE_-7" value="" style="edgeStyle=orthogonalEdgeStyle;rounded=0;orthogonalLoop=1;jettySize=auto;html=1;" parent="1" source="wwhvIDw3mNuY89BhDXE_-8" edge="1">
          <mxGeometry relative="1" as="geometry">
            <mxPoint x="370" y="857" as="targetPoint" />
          </mxGeometry>
        </mxCell>
        <mxCell id="wwhvIDw3mNuY89BhDXE_-8" value="Overlord" style="ellipse;whiteSpace=wrap;html=1;" parent="1" vertex="1">
          <mxGeometry x="250" y="831" width="60" height="52" as="geometry" />
        </mxCell>
        <mxCell id="wwhvIDw3mNuY89BhDXE_-12" value="" style="edgeStyle=orthogonalEdgeStyle;rounded=0;orthogonalLoop=1;jettySize=auto;html=1;" parent="1" source="wwhvIDw3mNuY89BhDXE_-9" target="XOS-CpgFwpekMtQFtGS_-4" edge="1">
          <mxGeometry relative="1" as="geometry">
            <Array as="points">
              <mxPoint x="500" y="240" />
              <mxPoint x="500" y="240" />
            </Array>
          </mxGeometry>
        </mxCell>
        <mxCell id="wwhvIDw3mNuY89BhDXE_-9" value="python\&lt;br style=&quot;border-color: var(--border-color);&quot;&gt;Optimize_V2\&lt;br style=&quot;border-color: var(--border-color);&quot;&gt;Optimize_V2. py&lt;br style=&quot;border-color: var(--border-color);&quot;&gt;" style="ellipse;whiteSpace=wrap;html=1;aspect=fixed;" parent="1" vertex="1">
          <mxGeometry x="550" y="201" width="80" height="80" as="geometry" />
        </mxCell>
        <mxCell id="wwhvIDw3mNuY89BhDXE_-15" value="Macro\ Specs_Gen. xlsm" style="ellipse;whiteSpace=wrap;html=1;aspect=fixed;" parent="1" vertex="1">
          <mxGeometry x="215" y="251" width="80" height="80" as="geometry" />
        </mxCell>
        <mxCell id="WnvdPqoK6Z-XB0HQEn03-4" value="" style="edgeStyle=orthogonalEdgeStyle;rounded=0;orthogonalLoop=1;jettySize=auto;html=1;entryX=0;entryY=0.5;entryDx=0;entryDy=0;" edge="1" parent="1" source="WnvdPqoK6Z-XB0HQEn03-3" target="XOS-CpgFwpekMtQFtGS_-16">
          <mxGeometry relative="1" as="geometry" />
        </mxCell>
        <mxCell id="WnvdPqoK6Z-XB0HQEn03-3" value="Python\&lt;br&gt;EIA_Downloader\&amp;nbsp;&lt;br&gt;EIA_Downloader.py" style="ellipse;whiteSpace=wrap;html=1;" vertex="1" parent="1">
          <mxGeometry x="160" y="112" width="130" height="80" as="geometry" />
        </mxCell>
      </root>
    </mxGraphModel>
  </diagram>
</mxfile>
